# xmcd
#
# Track frame offsets:
# 150
# 3456
# 9507
# 21414
# 39650
# 44770
# 53020
# 60553
# 77507
# 83092
# 95680
# 109161
# 113342
# 119359
# 129370
# 132817
# 138830
# 143315
# 160197
# 179261
# 184314
# 193928
# 205527
#
# Disc length: 2749 seconds
#
#
# Revision: 0
# Processed by: cddbd v1.4PL0 Copyright (c) Steve Scherf et al.
# Submitted via: FreeRIP 2.35 
#
DISCID=2d0abb17
DTITLE=Audio Composers League - Photosynthesis vol. 10
DYEAR=2003
DGENRE=Rap
TTITLE0=Intro
TTITLE1=Been A Long Time
TTITLE2=The Grass
TTITLE3=Come Home
TTITLE4=Shikaboom
TTITLE5=Thawed
TTITLE6=When It Goes Down
TTITLE7=Comba Toast
TTITLE8=Sultans of Swamp
TTITLE9=Wouldaben
TTITLE10=Rubber Duck
TTITLE11=Audio Intermission
TTITLE12=Shitkickers and Blade
TTITLE13=Corespondent
TTITLE14=Thy Hand...
TTITLE15=Greyskull Antivenom
TTITLE16=Listen
TTITLE17=Hickspanics
TTITLE18=Crackurs
TTITLE19=M.I.T.S
TTITLE20=Maintained Status
TTITLE21=Compozed
TTITLE22=Bonus
EXTD=
EXTT0=
EXTT1=
EXTT2=
EXTT3=
EXTT4=
EXTT5=
EXTT6=
EXTT7=
EXTT8=
EXTT9=
EXTT10=
EXTT11=
EXTT12=
EXTT13=
EXTT14=
EXTT15=
EXTT16=
EXTT17=
EXTT18=
EXTT19=
EXTT20=
EXTT21=
EXTT22=
PLAYORDER=
